<svg xmlns="http://www.w3.org/2000/svg" width="1283" height="607.5" version="1.1" viewBox="0 0 641.5 303.75"><defs><style>@font-face{font-family:&quot;Virgil&quot;;src:url(https://excalidraw.com/Virgil.woff2)}@font-face{font-family:&quot;Cascadia&quot;;src:url(https://excalidraw.com/Cascadia.woff2)}</style></defs><rect width="641.5" height="303.75" x="0" y="0" fill="#fff"/><g stroke-linecap="round"><path fill="none" stroke="#000" stroke-width="1" d="M0 0 C47.08 0, 94.15 0, 201 0 M0 0 C59.9 0, 119.8 0, 201 0 M201 0 C201 30.16, 201 60.32, 201 96.25 M201 0 C201 37.32, 201 74.64, 201 96.25 M201 96.25 C154.06 96.25, 107.12 96.25, 0 96.25 M201 96.25 C140.51 96.25, 80.02 96.25, 0 96.25 M0 96.25 C0 69.23, 0 42.21, 0 0 M0 96.25 C0 67.95, 0 39.65, 0 0" transform="translate(10 10) rotate(0 100.5 48.125)"/></g><g><text x="95.5" y="16" fill="#000" direction="ltr" font-family="Helvetica, Segoe UI Emoji" font-size="20" text-anchor="middle" style="white-space:pre" transform="translate(15 47.625) rotate(0 95.5 10.5)">EventBridge</text></g><g stroke-linecap="round"><path fill="none" stroke="#000" stroke-width="1" d="M0 0 C80.8 0, 161.59 0, 237 0 M0 0 C58.26 0, 116.52 0, 237 0 M237 0 C237 37.81, 237 75.63, 237 100 M237 0 C237 38.15, 237 76.29, 237 100 M237 100 C174.42 100, 111.84 100, 0 100 M237 100 C181.77 100, 126.54 100, 0 100 M0 100 C0 61.85, 0 23.7, 0 0 M0 100 C0 78.49, 0 56.99, 0 0" transform="translate(390 10) rotate(0 118.5 50)"/></g><g><text x="113.5" y="16" fill="#000" direction="ltr" font-family="Helvetica, Segoe UI Emoji" font-size="20" text-anchor="middle" style="white-space:pre" transform="translate(395 49.5) rotate(0 113.5 10.5)">Lambda Registrator</text></g><g stroke-linecap="round"><path fill="none" stroke="#000" stroke-width="1" d="M0 0 C80.26 0, 160.52 0, 221.5 0 M0 0 C71.57 0, 143.14 0, 221.5 0 M221.5 0 C221.5 19.26, 221.5 38.52, 221.5 83.75 M221.5 0 C221.5 27.58, 221.5 55.16, 221.5 83.75 M221.5 83.75 C147.17 83.75, 72.85 83.75, 0 83.75 M221.5 83.75 C158 83.75, 94.49 83.75, 0 83.75 M0 83.75 C0 60.58, 0 37.41, 0 0 M0 83.75 C0 55, 0 26.25, 0 0" transform="translate(410 210) rotate(0 110.75 41.875)"/></g><g><text x="106" y="16" fill="#000" direction="ltr" font-family="Helvetica, Segoe UI Emoji" font-size="20" text-anchor="middle" style="white-space:pre" transform="translate(415 241.375) rotate(0 106 10.5)">Consul</text></g><g stroke-linecap="round"><g><path fill="none" stroke="#000" stroke-width="1" d="M0 0 C0 16.33, 0 81.67, 0 98 M0 0 C0 16.33, 0 81.67, 0 98" transform="translate(510 111) rotate(0 0 49)"/></g><g><path fill="none" stroke="#000" stroke-width="1" d="M-10.26 69.81 C-8.14 75.64, -6.01 81.48, 0 98 M-10.26 69.81 C-6.41 80.39, -2.56 90.96, 0 98" transform="translate(510 111) rotate(0 0 49)"/></g><g><path fill="none" stroke="#000" stroke-width="1" d="M10.26 69.81 C8.14 75.64, 6.01 81.48, 0 98 M10.26 69.81 C6.41 80.39, 2.56 90.96, 0 98" transform="translate(510 111) rotate(0 0 49)"/></g></g><g><text x="5" y="13" fill="#000" direction="ltr" font-family="Helvetica, Segoe UI Emoji" font-size="16" text-anchor="middle" style="white-space:pre" transform="translate(530 150) rotate(0 5 8.5)">2</text></g><g stroke-linecap="round"><g><path fill="none" stroke="#000" stroke-width="1" d="M0 0 C29.67 0, 148.33 0, 178 0 M0 0 C29.67 0, 148.33 0, 178 0" transform="translate(212 50) rotate(0 89 0)"/></g><g><path fill="none" stroke="#000" stroke-width="1" d="M149.81 10.26 C159.12 6.87, 168.43 3.48, 178 0 M149.81 10.26 C157.85 7.33, 165.89 4.41, 178 0" transform="translate(212 50) rotate(0 89 0)"/></g><g><path fill="none" stroke="#000" stroke-width="1" d="M149.81 -10.26 C159.12 -6.87, 168.43 -3.48, 178 0 M149.81 -10.26 C157.85 -7.33, 165.89 -4.41, 178 0" transform="translate(212 50) rotate(0 89 0)"/></g></g><g><text x="0" y="13" fill="#000" direction="ltr" font-family="Helvetica, Segoe UI Emoji" font-size="16" text-anchor="start" style="white-space:pre" transform="translate(290 30) rotate(0 5 8.5)">1</text></g></svg>