<svg xmlns="http://www.w3.org/2000/svg" xmlns:svg="http://www.w3.org/2000/svg" id="LOGOS" width="240.948" height="63.52" version="1.1" viewBox="0 0 240.948 63.52"><defs id="defs4"><style id="style2">.cls-1{fill:#e03875}</style></defs><path id="path6" d="m 87.467615,22.679995 c 0,-7.38 4.3,-11.68 14.340005,-11.68 a 46,46 0 0 1 11,1.33 l -0.85,6.6 a 59,59 0 0 0 -9.86,-1 c -5.270005,0 -7.000005,1.81 -7.000005,6.11 v 15.46 c 0,4.29 1.69,6.11 7.000005,6.11 a 59,59 0 0 0 9.86,-1 l 0.85,6.6 a 46,46 0 0 1 -11,1.33 c -10.000005,0 -14.340005,-4.3 -14.340005,-11.68 z"/><path id="path8" d="m 129.09762,52.509995 c -10.11,0 -12.82,-5.58 -12.82,-11.58 v -7.48 c 0,-6.05 2.72,-11.62 12.83,-11.62 10.11,0 12.82,5.57 12.82,11.62 v 7.48 c -0.01,6 -2.73,11.58 -12.83,11.58 z m 0,-24.39 c -3.94,0 -5.45,1.76 -5.45,5.09 v 7.92 c 0,3.33 1.51,5.08 5.45,5.08 3.94,0 5.44,-1.75 5.44,-5.08 v -7.92 c 0,-3.28 -1.51,-5.09 -5.44,-5.09 z"/><path id="path10" d="m 164.36762,51.929995 v -20.6 c 0,-1.57 -0.67,-2.36 -2.36,-2.36 -1.69,0 -5,1.09 -7.69,2.48 v 20.48 h -7.38 v -29.49 h 5.63 l 0.71,2.49 a 29.49,29.49 0 0 1 11.8,-3.09 c 4.9,0 6.66,3.45 6.66,8.71 v 21.38 z"/><path id="path12" d="m 186.92762,52.509995 a 34.66,34.66 0 0 1 -10.16,-1.7 l 1,-5.62 a 33.18,33.18 0 0 0 8.77,1.27 c 3.27,0 3.75,-0.73 3.75,-3 0,-1.81 -0.36,-2.72 -5.14,-3.87 -7.2,-1.75 -8.05,-3.57 -8.05,-9.26 0,-5.93 2.6,-8.53 11,-8.53 a 38.51,38.51 0 0 1 8.83,1 l -0.65,5.93 a 52.36,52.36 0 0 0 -8.11,-0.85 c -3.21,0 -3.75,0.73 -3.75,2.54 0,2.36 0.18,2.54 4.18,3.57 8.22,2.18 9,3.27 9,9.32 -0.02,5.69 -1.77,9.2 -10.67,9.2 z"/><path id="path14" d="m 209.79762,22.439995 v 20.57 c 0,1.57 0.66,2.36 2.36,2.36 1.7,0 5,-1.09 7.68,-2.48 v -20.45 h 7.38 v 29.49 h -5.62 l -0.73,-2.48 a 29.44,29.44 0 0 1 -11.8,3.09 c -4.9,0 -6.65,-3.45 -6.65,-8.72 v -21.38 z"/><path id="path16" d="m 233.56762,51.929995 v -41.53 l 7.38,-0.9999999 V 51.929995 Z"/><path id="path18" d="m 31.777615,63.519995 a 31.76,31.76 0 1 1 21.5,-55.1199999 v 0 l -7.51,7.8799999 v 0 a 20.87,20.87 0 1 0 0,31 v 0 l 7.51,7.85 v 0 a 31.66,31.66 0 0 1 -21.5,8.39 z" class="cls-1"/><path id="path20" d="m 57.337615,47.629995 a 2.6,2.6 0 1 1 2.6,-2.6 2.6,2.6 0 0 1 -2.6,2.6 z" class="cls-1"/><path id="path22" d="m 31.577615,38.639995 a 6.88,6.88 0 1 1 6.88,-6.88 6.88,6.88 0 0 1 -6.88,6.88 z" class="cls-1"/><path id="path24" d="m 60.327615,38.739995 a 2.6,2.6 0 1 1 2.6,-2.6 2.61,2.61 0 0 1 -2.6,2.6 z" class="cls-1"/><path id="path26" d="m 52.587615,38.439995 a 2.6,2.6 0 1 1 2.6,-2.6 2.6,2.6 0 0 1 -2.6,2.6 z" class="cls-1"/><path id="path28" d="m 60.327615,29.989995 a 2.6,2.6 0 1 1 2.6,-2.6 2.61,2.61 0 0 1 -2.6,2.6 z" class="cls-1"/><path id="path30" d="m 52.587615,30.289995 a 2.6,2.6 0 1 1 2.6,-2.6 2.6,2.6 0 0 1 -2.6,2.6 z" class="cls-1"/><path id="path32" d="m 57.487615,21.239995 a 2.6,2.6 0 1 1 2.6,-2.6 2.6,2.6 0 0 1 -2.6,2.6 z" class="cls-1"/></svg>