<svg xmlns="http://www.w3.org/2000/svg" id="graph-div" width="100%" height="808" style="max-width:905.6640625px" viewBox="0 0 905.664 808"><style>#graph-div{fill:#333}#graph-div,#graph-div svg{font-family:&quot;trebuchet ms&quot;,verdana,arial,sans-serif;font-size:16px}#graph-div .entityBox{fill:#ececff;stroke:#9370db}#graph-div .attributeBoxOdd{fill:#fff;stroke:#9370db}#graph-div .attributeBoxEven{fill:#f2f2f2;stroke:#9370db}#graph-div .relationshipLabelBox{fill:#f9ffec;opacity:.7;background-color:#f9ffec}#graph-div .relationshipLabelBox rect{opacity:.5}#graph-div .relationshipLine{stroke:#333}#graph-div .er.entityBox{fill:#dc477d;stroke-width:1;stroke:#000}#graph-div .er.entityBox+.er.entityLabel{fill:#fff}#graph-div .er.attributeBoxEven,#graph-div .er.attributeBoxOdd{fill:#fff;stroke:#777}#graph-div:root{--mermaid-font-family:&quot;trebuchet ms&quot;,verdana,arial,sans-serif}</style><defs><marker id="ONLY_ONE_START" markerHeight="18" markerWidth="18" orient="auto" refX="0" refY="9"><path fill="none" stroke="gray" d="M9,0 L9,18 M15,0 L15,18"/></marker></defs><defs><marker id="ONLY_ONE_END" markerHeight="18" markerWidth="18" orient="auto" refX="18" refY="9"><path fill="none" stroke="gray" d="M3,0 L3,18 M9,0 L9,18"/></marker></defs><defs><marker id="ZERO_OR_ONE_START" markerHeight="18" markerWidth="30" orient="auto" refX="0" refY="9"><circle cx="21" cy="9" r="6" fill="#fff" stroke="gray"/><path fill="none" stroke="gray" d="M9,0 L9,18"/></marker></defs><defs><marker id="ZERO_OR_ONE_END" markerHeight="18" markerWidth="30" orient="auto" refX="30" refY="9"><circle cx="9" cy="9" r="6" fill="#fff" stroke="gray"/><path fill="none" stroke="gray" d="M21,0 L21,18"/></marker></defs><defs><marker id="ONE_OR_MORE_START" markerHeight="36" markerWidth="45" orient="auto" refX="18" refY="18"><path fill="none" stroke="gray" d="M0,18 Q 18,0 36,18 Q 18,36 0,18 M42,9 L42,27"/></marker></defs><defs><marker id="ONE_OR_MORE_END" markerHeight="36" markerWidth="45" orient="auto" refX="27" refY="18"><path fill="none" stroke="gray" d="M3,9 L3,27 M9,18 Q27,0 45,18 Q27,36 9,18"/></marker></defs><defs><marker id="ZERO_OR_MORE_START" markerHeight="36" markerWidth="57" orient="auto" refX="18" refY="18"><circle cx="48" cy="18" r="6" fill="#fff" stroke="gray"/><path fill="none" stroke="gray" d="M0,18 Q18,0 36,18 Q18,36 0,18"/></marker></defs><defs><marker id="ZERO_OR_MORE_END" markerHeight="36" markerWidth="57" orient="auto" refX="39" refY="18"><circle cx="9" cy="18" r="6" fill="#fff" stroke="gray"/><path fill="none" stroke="gray" d="M21,18 Q39,0 57,18 Q39,36 21,18"/></marker></defs><path fill="none" stroke="gray" marker-end="url(#ONE_OR_MORE_END)" marker-start="url(#ONLY_ONE_START)" d="M70,620L70,628.3333333333334C70,636.6666666666666,70,653.3333333333334,124.16666666666667,673.8000000000001C178.33333333333334,694.2666666666668,286.6666666666667,718.5333333333333,340.8333333333333,730.6666666666666L395,742.8" class="er relationshipLine"/><path fill="none" stroke="gray" marker-end="url(#ONE_OR_MORE_END)" marker-start="url(#ONLY_ONE_START)" d="M197.7109375,442.5L185.2109375,451.25C172.7109375,460,147.7109375,477.5,130.1908482142857,494.5833333333333C112.67075892857143,511.6666666666667,102.63058035714285,528.3333333333334,97.61049107142856,536.6666666666666L92.59040178571428,545" class="er relationshipLine"/><path fill="none" stroke="gray" marker-end="url(#ONE_OR_MORE_END)" marker-start="url(#ONE_OR_MORE_START)" d="M236.99665178571428,445L234.6156994047619,453.3333333333333C232.23474702380952,461.6666666666667,227.47284226190473,478.3333333333333,243.2142857142857,496.3264245827781C258.9557291666667,514.3195158322228,295.2005208333333,533.6390316644457,313.3229166666667,543.2987895805571L331.4453125,552.9585474966685" class="er relationshipLine"/><path fill="none" stroke="gray" marker-end="url(#ONE_OR_MORE_END)" marker-start="url(#ONE_OR_MORE_START)" d="M297.7109375,441.7570502232826L310.6627604166667,450.6308751860688C323.6145833333333,459.5047001488551,349.5182291666667,477.2523500744275,390.28125,497.34723547406907C431.0442708333333,517.4421208737107,486.6666666666667,539.8842417474212,514.4778645833334,551.1053021842766L542.2890625,562.3263626211319" class="er relationshipLine"/><path fill="none" stroke="gray" marker-end="url(#ONE_OR_MORE_END)" marker-start="url(#ONE_OR_MORE_START)" d="M425.421875,242.10647751054998L357.8515625,255.08873125879165C290.28125,268.07098500703336,155.140625,294.03549250351665,87.5703125,321.60107958509167C20,349.1666666666667,20,378.3333333333333,20,407.5C20,436.6666666666667,20,465.8333333333333,24.76190476190476,488.75C29.523809523809522,511.6666666666667,39.047619047619044,528.3333333333334,43.8095238095238,536.6666666666666L48.57142857142857,545" class="er relationshipLine"/><path fill="none" stroke="gray" marker-end="url(#ONE_OR_MORE_END)" marker-start="url(#ONE_OR_MORE_START)" d="M425.421875,251.71295502109993L395.8033854166667,263.09412918424994C366.1848958333333,274.4753033473999,306.9479166666667,297.2376516737,277.3294270833333,316.95215917018334C247.7109375,336.6666666666667,247.7109375,353.3333333333333,247.7109375,361.6666666666667L247.7109375,370" class="er relationshipLine"/><path fill="none" stroke="gray" marker-end="url(#ONE_OR_MORE_END)" marker-start="url(#ONE_OR_MORE_START)" d="M475.421875,270L475.421875,278.3333333333333C475.421875,286.6666666666667,475.421875,303.3333333333333,475.421875,326.25C475.421875,349.1666666666667,475.421875,378.3333333333333,475.421875,407.5C475.421875,436.6666666666667,475.421875,465.8333333333333,466.98809523809524,488.75C458.55431547619054,511.6666666666667,441.68675595238096,528.3333333333334,433.2529761904762,536.6666666666666L424.81919642857144,545" class="er relationshipLine"/><path fill="none" stroke="gray" marker-end="url(#ONE_OR_MORE_END)" marker-start="url(#ONE_OR_MORE_START)" d="M525.421875,261.1488975290326L542.5403645833334,270.95741460752714C559.6588541666666,280.7659316860217,593.8958333333334,300.3829658430109,611.0143229166666,324.77481625483875C628.1328125,349.1666666666667,628.1328125,378.3333333333333,628.1328125,407.5C628.1328125,436.6666666666667,628.1328125,465.8333333333333,624.7191220238095,488.75C621.305431547619,511.6666666666667,614.4780505952381,528.3333333333334,611.0643601190476,536.6666666666666L607.6506696428571,545" class="er relationshipLine"/><path fill="none" stroke="gray" marker-end="url(#ONE_OR_MORE_END)" marker-start="url(#ONLY_ONE_START)" d="M332.56473214285717,95L323.04092261904765,103.33333333333333C313.51711309523813,111.66666666666667,294.46949404761904,128.33333333333334,284.9456845238095,145C275.421875,161.66666666666666,275.421875,178.33333333333334,275.421875,186.66666666666666L275.421875,195" class="er relationshipLine"/><path fill="none" stroke="gray" marker-end="url(#ONE_OR_MORE_END)" marker-start="url(#ONLY_ONE_START)" d="M418.27901785714283,95L427.80282738095235,103.33333333333333C437.3266369047619,111.66666666666667,456.37425595238096,128.33333333333334,465.8980654761904,145C475.421875,161.66666666666666,475.421875,178.33333333333334,475.421875,186.66666666666666L475.421875,195" class="er relationshipLine"/><path fill="none" stroke="gray" marker-end="url(#ONE_OR_MORE_END)" marker-start="url(#ONLY_ONE_START)" d="M386.8671875,620L386.8671875,628.3333333333334C386.8671875,636.6666666666666,386.8671875,653.3333333333334,392.63433159722223,670C398.4014756944444,686.6666666666666,409.93576388888886,703.3333333333334,415.7029079861111,711.6666666666666L421.4700520833333,720" class="er relationshipLine"/><path fill="none" stroke="gray" marker-end="url(#ONE_OR_MORE_END)" marker-start="url(#ONLY_ONE_START)" d="M592.2890625,620L592.2890625,628.3333333333334C592.2890625,636.6666666666666,592.2890625,653.3333333333334,576.07421875,670.9141073922806C559.859375,688.4948814512278,527.4296875,706.9897629024558,511.21484375,716.2372036280698L495,725.4846443536837" class="er relationshipLine"/><path fill="none" stroke="gray" marker-end="url(#ONLY_ONE_END)" marker-start="url(#ONLY_ONE_START)" d="M525.421875,245.42257990077306L573.5143229166666,257.8521499173109C621.6067708333334,270.2817199338487,717.7916666666666,295.1408599669243,765.8841145833334,315.9037633167955C813.9765625,336.6666666666667,813.9765625,353.3333333333333,813.9765625,361.6666666666667L813.9765625,370" class="er relationshipLine"/><path fill="none" stroke="gray" marker-end="url(#ONE_OR_MORE_END)" marker-start="url(#ONLY_ONE_START)" d="M813.9765625,445L813.9765625,453.3333333333333C813.9765625,461.6666666666667,813.9765625,478.3333333333333,813.9765625,495C813.9765625,511.6666666666667,813.9765625,528.3333333333334,813.9765625,536.6666666666666L813.9765625,545" class="er relationshipLine"/><g id="Token" transform="translate(425.421875,195 )"><rect width="100" height="75" x="0" y="0" fill="#f0fff0" fill-opacity="100%" stroke="gray" class="er entityBox"/><text id="entity-Token" x="0" y="0" class="er entityLabel" dominant-baseline="middle" text-anchor="middle" style="font-family:&quot;trebuchet ms&quot;,verdana,arial,sans-serif;font-size:12px" transform="translate(50,37.5)">Token</text></g><g id="Policy" transform="translate(20,545 )"><rect width="100" height="75" x="0" y="0" fill="#f0fff0" fill-opacity="100%" stroke="gray" class="er entityBox"/><text id="entity-Policy" x="0" y="0" class="er entityLabel" dominant-baseline="middle" text-anchor="middle" style="font-family:&quot;trebuchet ms&quot;,verdana,arial,sans-serif;font-size:12px" transform="translate(50,37.5)">Policy</text></g><g id="Role" transform="translate(197.7109375,370 )"><rect width="100" height="75" x="0" y="0" fill="#f0fff0" fill-opacity="100%" stroke="gray" class="er entityBox"/><text id="entity-Role" x="0" y="0" class="er entityLabel" dominant-baseline="middle" text-anchor="middle" style="font-family:&quot;trebuchet ms&quot;,verdana,arial,sans-serif;font-size:12px" transform="translate(50,37.5)">Role</text></g><g id="ServiceIdentity" transform="translate(331.4453125,545 )"><rect width="110.844" height="75" x="0" y="0" fill="#f0fff0" fill-opacity="100%" stroke="gray" class="er entityBox"/><text id="entity-ServiceIdentity" x="0" y="0" class="er entityLabel" dominant-baseline="middle" text-anchor="middle" style="font-family:&quot;trebuchet ms&quot;,verdana,arial,sans-serif;font-size:12px" transform="translate(55.421875,37.5)">ServiceIdentity</text></g><g id="NodeIdentity" transform="translate(542.2890625,545 )"><rect width="100" height="75" x="0" y="0" fill="#f0fff0" fill-opacity="100%" stroke="gray" class="er entityBox"/><text id="entity-NodeIdentity" x="0" y="0" class="er entityLabel" dominant-baseline="middle" text-anchor="middle" style="font-family:&quot;trebuchet ms&quot;,verdana,arial,sans-serif;font-size:12px" transform="translate(50,37.5)">NodeIdentity</text></g><g id="AuthMethod" transform="translate(325.421875,20 )"><rect width="100" height="75" x="0" y="0" fill="#f0fff0" fill-opacity="100%" stroke="gray" class="er entityBox"/><text id="entity-AuthMethod" x="0" y="0" class="er entityLabel" dominant-baseline="middle" text-anchor="middle" style="font-family:&quot;trebuchet ms&quot;,verdana,arial,sans-serif;font-size:12px" transform="translate(50,37.5)">AuthMethod</text></g><g id="BindingRule" transform="translate(225.421875,195 )"><rect width="100" height="75" x="0" y="0" fill="#f0fff0" fill-opacity="100%" stroke="gray" class="er entityBox"/><text id="entity-BindingRule" x="0" y="0" class="er entityLabel" dominant-baseline="middle" text-anchor="middle" style="font-family:&quot;trebuchet ms&quot;,verdana,arial,sans-serif;font-size:12px" transform="translate(50,37.5)">BindingRule</text></g><g id="Rule" transform="translate(395,720 )"><rect width="100" height="68" x="0" y="0" fill="#f0fff0" fill-opacity="100%" stroke="gray" class="er entityBox"/><text id="entity-Rule" x="0" y="0" class="er entityLabel" dominant-baseline="middle" text-anchor="middle" style="font-family:&quot;trebuchet ms&quot;,verdana,arial,sans-serif;font-size:12px" transform="translate(50,12)">Rule</text><rect width="35.773" height="22" x="0" y="24" fill="#f0fff0" fill-opacity="100%" stroke="gray" class="er attributeBoxOdd"/><text id="entity-Rule-attr-1-type" x="0" y="0" class="er entityLabel" dominant-baseline="middle" text-anchor="left" style="font-family:&quot;trebuchet ms&quot;,verdana,arial,sans-serif;font-size:10.2px" transform="translate(5,35)">string</text><rect width="64.227" height="22" x="35.773" y="24" fill="#f0fff0" fill-opacity="100%" stroke="gray" class="er attributeBoxOdd"/><text id="entity-Rule-attr-1-name" x="0" y="0" class="er entityLabel" dominant-baseline="middle" text-anchor="left" style="font-family:&quot;trebuchet ms&quot;,verdana,arial,sans-serif;font-size:10.2px" transform="translate(40.7734375,35)">Resource</text><rect width="35.773" height="22" x="0" y="46" fill="#f0fff0" fill-opacity="100%" stroke="gray" class="er attributeBoxEven"/><text id="entity-Rule-attr-2-type" x="0" y="0" class="er entityLabel" dominant-baseline="middle" text-anchor="left" style="font-family:&quot;trebuchet ms&quot;,verdana,arial,sans-serif;font-size:10.2px" transform="translate(5,57)">enum</text><rect width="64.227" height="22" x="35.773" y="46" fill="#f0fff0" fill-opacity="100%" stroke="gray" class="er attributeBoxEven"/><text id="entity-Rule-attr-2-name" x="0" y="0" class="er entityLabel" dominant-baseline="middle" text-anchor="left" style="font-family:&quot;trebuchet ms&quot;,verdana,arial,sans-serif;font-size:10.2px" transform="translate(40.7734375,57)">AccessLevel</text></g><g id="Authorizer" transform="translate(763.9765625,370 )"><rect width="100" height="75" x="0" y="0" fill="#f0fff0" fill-opacity="100%" stroke="gray" class="er entityBox"/><text id="entity-Authorizer" x="0" y="0" class="er entityLabel" dominant-baseline="middle" text-anchor="middle" style="font-family:&quot;trebuchet ms&quot;,verdana,arial,sans-serif;font-size:12px" transform="translate(50,37.5)">Authorizer</text></g><g id="EnforcementDecision" transform="translate(742.2890625,545 )"><rect width="143.375" height="75" x="0" y="0" fill="#f0fff0" fill-opacity="100%" stroke="gray" class="er entityBox"/><text id="entity-EnforcementDecision" x="0" y="0" class="er entityLabel" dominant-baseline="middle" text-anchor="middle" style="font-family:&quot;trebuchet ms&quot;,verdana,arial,sans-serif;font-size:12px" transform="translate(71.6875,37.5)">EnforcementDecision</text></g><rect width="33.313" height="14.016" x="201.52" y="694.729" fill="#fff" fill-opacity="85%" class="er relationshipLabelBox"/><text id="rel2995" x="218.177" y="701.736" class="er relationshipLabel" dominant-baseline="middle" text-anchor="middle" style="font-family:&quot;trebuchet ms&quot;,verdana,arial,sans-serif;font-size:12px">grants</text><rect width="44.266" height="14.016" x="116.231" y="480.023" fill="#fff" fill-opacity="85%" class="er relationshipLabelBox"/><text id="rel2996" x="138.363" y="487.031" class="er relationshipLabel" dominant-baseline="middle" text-anchor="middle" style="font-family:&quot;trebuchet ms&quot;,verdana,arial,sans-serif;font-size:12px">includes</text><rect width="44.266" height="14.016" x="240.114" y="505.843" fill="#fff" fill-opacity="85%" class="er relationshipLabelBox"/><text id="rel2997" x="262.247" y="512.851" class="er relationshipLabel" dominant-baseline="middle" text-anchor="middle" style="font-family:&quot;trebuchet ms&quot;,verdana,arial,sans-serif;font-size:12px">includes</text><rect width="44.266" height="14.016" x="394.033" y="502.562" fill="#fff" fill-opacity="85%" class="er relationshipLabelBox"/><text id="rel2998" x="416.165" y="509.57" class="er relationshipLabel" dominant-baseline="middle" text-anchor="middle" style="font-family:&quot;trebuchet ms&quot;,verdana,arial,sans-serif;font-size:12px">includes</text><rect width="44.266" height="14.016" x="105.853" y="300.496" fill="#fff" fill-opacity="85%" class="er relationshipLabelBox"/><text id="rel2999" x="127.986" y="307.504" class="er relationshipLabel" dominant-baseline="middle" text-anchor="middle" style="font-family:&quot;trebuchet ms&quot;,verdana,arial,sans-serif;font-size:12px">includes</text><rect width="44.266" height="14.016" x="298.213" y="287.092" fill="#fff" fill-opacity="85%" class="er relationshipLabelBox"/><text id="rel3000" x="320.346" y="294.1" class="er relationshipLabel" dominant-baseline="middle" text-anchor="middle" style="font-family:&quot;trebuchet ms&quot;,verdana,arial,sans-serif;font-size:12px">includes</text><rect width="44.266" height="14.016" x="453.283" y="408.273" fill="#fff" fill-opacity="85%" class="er relationshipLabelBox"/><text id="rel3001" x="475.416" y="415.28" class="er relationshipLabel" dominant-baseline="middle" text-anchor="middle" style="font-family:&quot;trebuchet ms&quot;,verdana,arial,sans-serif;font-size:12px">includes</text><rect width="44.25" height="14.016" x="605.523" y="373.961" fill="#fff" fill-opacity="85%" class="er relationshipLabelBox"/><text id="rel3002" x="627.648" y="380.968" class="er relationshipLabel" dominant-baseline="middle" text-anchor="middle" style="font-family:&quot;trebuchet ms&quot;,verdana,arial,sans-serif;font-size:12px">includes</text><rect width="39.203" height="14.016" x="270.182" y="130.557" fill="#fff" fill-opacity="85%" class="er relationshipLabelBox"/><text id="rel3003" x="289.784" y="137.565" class="er relationshipLabel" dominant-baseline="middle" text-anchor="middle" style="font-family:&quot;trebuchet ms&quot;,verdana,arial,sans-serif;font-size:12px">defines</text><rect width="39.766" height="14.016" x="441.177" y="130.557" fill="#fff" fill-opacity="85%" class="er relationshipLabelBox"/><text id="rel3004" x="461.06" y="137.565" class="er relationshipLabel" dominant-baseline="middle" text-anchor="middle" style="font-family:&quot;trebuchet ms&quot;,verdana,arial,sans-serif;font-size:12px">creates</text><rect width="38.594" height="14.016" x="374.601" y="666.417" fill="#fff" fill-opacity="85%" class="er relationshipLabelBox"/><text id="rel3005" x="393.898" y="673.425" class="er relationshipLabel" dominant-baseline="middle" text-anchor="middle" style="font-family:&quot;trebuchet ms&quot;,verdana,arial,sans-serif;font-size:12px">implies</text><rect width="38.578" height="14.016" x="540.758" y="678.135" fill="#fff" fill-opacity="85%" class="er relationshipLabelBox"/><text id="rel3006" x="560.047" y="685.143" class="er relationshipLabel" dominant-baseline="middle" text-anchor="middle" style="font-family:&quot;trebuchet ms&quot;,verdana,arial,sans-serif;font-size:12px">implies</text><rect width="58.719" height="14.016" x="655.173" y="281.071" fill="#fff" fill-opacity="85%" class="er relationshipLabelBox"/><text id="rel3007" x="684.533" y="288.079" class="er relationshipLabel" dominant-baseline="middle" text-anchor="middle" style="font-family:&quot;trebuchet ms&quot;,verdana,arial,sans-serif;font-size:12px">resolves to</text><rect width="48.531" height="14" x="789.711" y="488" fill="#fff" fill-opacity="85%" class="er relationshipLabelBox"/><text id="rel3008" x="813.977" y="495" class="er relationshipLabel" dominant-baseline="middle" text-anchor="middle" style="font-family:&quot;trebuchet ms&quot;,verdana,arial,sans-serif;font-size:12px">produces</text></svg>